<svg version="1.1" viewBox="0 0 92 104" xmlns="http://www.w3.org/2000/svg">
    <title>Group 16</title>
    <g fill="none" fill-rule="evenodd">
        <path id="Oval" d="m45.464 19.5c-14.667 0-25.526 4.1851-32.893 11.072-8.2123 7.677-12.071 18.696-12.071 30.928 0 11.425 5.2291 21.78 13.325 29.349 8.3494 7.8051 19.75 12.651 31.638 12.651 12.451 0 23.713-3.1958 31.989-10.811 7.3001-6.717 12.264-16.865 13.703-31.239 1.4696-14.678-1.8028-24.947-9.075-31.638-7.9013-7.2702-20.469-10.312-36.617-10.312z" fill="#D8D8D8" stroke="#979797"/>
        <circle id="Oval" cx="58.5" cy="51.5" r="2.5" fill="#000"/>
        <circle cx="31.5" cy="51.5" r="2.5" fill="#000"/>
        <path d="m29 85c6.0338 5.3333 11.584 8 16.652 8s10.517-2.6667 16.348-8" stroke="#979797"/>
        <path d="m38 62.474c0.41115 1.8675 1.0601 3.5429 1.9469 5.0262s2.7342 3.9832 5.5422 7.5c2.0342-3.2895 3.4958-5.7895 4.3849-7.5s1.5978-3.3859 2.126-5.0262c-1.3315-1.6492-3.6648-2.4738-7-2.4738s-5.6685 0.82461-7 2.4738z" fill="#CFB09C" stroke="#979797"/>
        <g fill="#40519D" stroke="#979797">
            <ellipse id="a" cx="45.704" cy="6.2222" rx="8.0042" ry="5.7222"/>
            <path d="m90.816 55.093c-0.017311-7.4778-0.42919-23.668-11.292-34.906-6.6716-6.9022-17.288-11.91-34.138-11.91-16.874 0-27.409 5.0217-33.969 11.94-10.483 11.055-10.822 26.882-10.828 34.91 24.19-14.131 28.515-16.361 49.014-16.361 16.909 0 24.515 5.1319 34.607 11.959 2.0625 1.3952 4.23 2.8615 6.6054 4.3687z"/>
        </g>
    </g>
</svg>
