<?xml version="1.0" encoding="UTF-8"?>
<svg version="1.1" viewBox="0 0 118 116" xmlns="http://www.w3.org/2000/svg" xmlns:xlink="http://www.w3.org/1999/xlink">
    <title>Group 10</title>
    <defs>
        <path id="n" d="m59 116c6.8447 0 14.99-1.5303 22.449-3.9667-3.2727 5.5268 5.0018-1.7648 7.3048-2.7802-2.0179 5.3661 4.8073-2.2959 6.8323-3.5543-1.5109 5.9193 3.3629-2.2785 4.6387-3.4702 1.8638 4.9979 3.6298-4.3606 3.6298-6.5486 8.819-10.136 14.145-23.297 14.145-37.68 0-32.033-26.415-58-59-58s-59 25.967-59 58c0 12.266 3.8731 23.642 10.483 33.012-1.0211 3.1532 1.1521 12.694 2.8988 8.7579 1.8836 2.0429 6.2255 11.902 6.2255 5.4866 1.9254 1.383 7.8176 10.744 6.1197 3.7102 2.9325 1.4935 13.324 8.2776 9.2965 3.7169 7.5425 2.3049 15.776 3.3164 23.977 3.3164z"/>
        <path id="o" d="m59.055-2.8422e-14c1.9856 11.132 4.7545 16.698 8.3066 16.698 4.9463 0 9.9168-10.009 16.396-11.577 4.3197-1.0459 10.776-2.7527 19.368-5.1203l-0.073041 0.019792c-1.9359 3.4539-4.219 6.6923-6.8029 9.6697 0 2.1869-1.7606 11.541-3.6187 6.5455-1.2719 1.1911-6.1308 9.3851-4.6245 3.4686-2.0188 1.2578-8.8232 8.9162-6.8114 3.5526-2.296 1.0149-10.545 8.3031-7.2825 2.7789-7.4366 2.4352-15.557 3.9649-22.381 3.9649-8.1761 0-16.384-1.0111-23.904-3.3149 4.0157 4.5586-6.3446-2.2224-9.2682-3.7151 1.6927 7.03-4.1816-2.3261-6.1011-3.7085 0 6.4119-4.3286-3.4421-6.2065-5.4841-1.7414 3.9346-3.9079-5.6021-2.89-8.7539-1.1373-1.6164-2.1933-3.2926-3.1623-5.0228 4.8848-8.3957e-5 9.59 0.43934 14.116 1.3175 7.9518 1.5428 16.477 13.545 18.291 13.545 2.6382 0 5.1655-4.9545 7.5817-14.863z"/>
        <path id="p" d="m10.618 14c3.2085 0 9.916-5.6162 9.916-9.8831 0-4.2668-4.4395-4.1163-9.916-4.1163s-9.916-0.15059-9.916 4.1163c0 4.2668 6.7074 9.8831 9.916 9.8831z"/>
        <ellipse id="k" cx="4.4312" cy="4.6939" rx="4.4312" ry="4.6939"/>
        <ellipse id="l" cx="4.4312" cy="4.6939" rx="4.4312" ry="4.6939"/>
    </defs>
    <g fill="none" fill-rule="evenodd">
        <g transform="translate(-7 -8)">
            <g transform="translate(7 8)">
                <g fill="#D4C3C3">
                    <path id="Oval" d="m99.353 4.5c-3.7546 0-7.1574 1.4626-9.6192 3.8386-2.4291 2.3446-3.9397 5.5813-3.9397 9.1614s1.5106 6.8168 3.9397 9.1614c2.4618 2.3761 5.8646 3.8386 9.6192 3.8386 4.2904 0 8.5917-0.7913 11.605-2.8132 2.1477-1.4413 3.5508-3.5662 3.5508-6.5354 0-3.8544-2.1125-8.1386-5.131-11.413-2.764-2.9982-6.3527-5.2384-10.024-5.2384z" fill="#fff" stroke="#000" stroke-width="5"/>
                    <path transform="translate(16.857 19.5) scale(-1 1) translate(-16.857 -19.5)" d="m16.059 6.5c-3.7546 0-7.1574 1.4626-9.6192 3.8386-2.4291 2.3446-3.9397 5.5813-3.9397 9.1614s1.5106 6.8168 3.9397 9.1614c2.4618 2.3761 5.8646 3.8386 9.6192 3.8386 4.2904 0 8.5917-0.7913 11.605-2.8132 2.1477-1.4413 3.5508-3.5662 3.5508-6.5354 0-3.8544-2.1125-8.1386-5.131-11.413-2.764-2.9982-6.3527-5.2384-10.024-5.2384z" fill="#fff" stroke="#000" stroke-width="5"/>
                    <g fill="#ECB083">
                        <mask fill="white">
                            <use xlink:href="#n"/>
                        </mask>
                        <path d="m59 0.5c-16.155 0-30.782 6.4366-41.369 16.844-10.584 10.405-17.131 24.778-17.131 40.656 0 12.159 3.8394 23.436 10.458 33.166-0.53625 1.656-0.13082 5.1438 0.59755 7.3443 0.2349 0.70967 0.47526 1.3266 1.1173 1.5179 0.084252-0.11419 0.16586-0.26867 0.25126-0.46114l0.3087-0.69571 0.51593 0.55957c0.56396 0.61167 1.3475 1.9024 2.1678 3.266 0.93039 1.5465 1.8846 3.29 3.1127 3.7656 0.053609-0.29442 0.077339-0.69224 0.077339-1.2061 0-0.33616-0.010157-0.62267-0.032193-0.86306 0.34495 0.16281 0.62824 0.31643 0.82389 0.45697 0.60838 0.437 1.6072 1.6367 2.6413 2.8961 0.97928 1.1925 2.0223 2.7097 2.9759 2.8182-0.033184-0.36633-0.12376-0.85312-0.27525-1.4806-0.098869-0.40956-0.19348-0.75393-0.28552-1.0386 0.39128 0.17874 0.73069 0.33933 0.99847 0.47571 0.71372 0.36348 1.8659 1.0374 3.1459 1.7866 2.3154 1.3553 5.0567 2.9693 6.3413 3.785-0.030287-0.19327-0.30737-0.52911-0.79232-1.0782l-1.1714-1.3263 1.6923 0.51713c7.4965 2.2908 15.68 3.2946 23.831 3.2946 6.7976 0 14.886-1.5225 22.294-3.942l1.2618-0.41213-0.67634 1.1422c-0.25637 0.43294-0.45472 0.76589-0.43684 1.1512 0.87739-0.38464 2.3361-1.4534 3.7338-2.4468 1.3548-0.96291 2.6535-1.8783 3.3759-2.1968l1.0884-0.47988-0.41869 1.1134c-0.1539 0.40926-0.27902 0.72515-0.12504 1.0525 0.85767-0.46283 2.2346-1.751 3.5134-2.9167 1.0898-0.99351 2.1095-1.9163 2.712-2.2907 0.2774-0.17238 0.69818-0.37256 1.2055-0.59082-0.23667 0.29702-0.33562 0.66294-0.45717 1.1392-0.11527 0.45162-0.20085 0.80643-0.15349 1.1611 0.60144-0.60188 1.4451-1.8164 2.2203-2.8855 0.72046-0.99367 1.3793-1.8922 1.7461-2.2349 0.13105-0.12241 0.33541-0.27718 0.5914-0.45525 0.050778 0.18428 0.12658 0.39974 0.21839 0.64593 0.2361 0.6331 0.41916 1.0434 0.70906 1.091 0.1326-0.09877 0.25167-0.27474 0.37268-0.49306 0.92955-1.677 1.5796-5.6601 1.7024-7.3 8.7422-10.048 14.022-23.093 14.022-37.352 0-15.877-6.5471-30.251-17.131-40.656-10.587-10.408-25.213-16.844-41.369-16.844z" stroke="#979797"/>
                    </g>
                    <g transform="translate(7.933 86)" fill="#fff">
                        <mask fill="white">
                            <use xlink:href="#o"/>
                        </mask>
                        <path d="m102.01 0.82494c-7.9797 2.1922-14.025 3.7859-18.137 4.7814-3.157 0.76438-5.9288 3.6094-8.5274 6.2347-2.7984 2.8271-5.414 5.3567-7.9866 5.3567-1.0018 0-1.9538-0.38129-2.8477-1.1684-0.82945-0.73037-1.6136-1.8216-2.3408-3.2834-1.3642-2.7423-2.5457-6.8194-3.5341-12.235l-18.377 0.46295c-1.1732 4.6584-2.3755 8.1658-3.5999 10.525-0.65372 1.2596-1.3191 2.2002-1.9866 2.8297-0.74848 0.70588-1.5101 1.035-2.2692 1.035-0.67226 0-2.2507-1.4209-4.3647-3.5464-3.5889-3.6084-8.9144-9.017-14.022-10.008-4.2282-0.82035-8.6139-1.255-13.157-1.3037 0.84119 1.4509 1.7451 2.8622 2.7746 4.6718-0.53465 1.6553-0.13049 5.1418 0.59573 7.3415 0.23383 0.70829 0.47271 1.3246 1.1115 1.5163 0.083719-0.11403 0.16484-0.26812 0.24975-0.45999l0.30879-0.69771 0.51647 0.56161c0.56225 0.61139 1.3434 1.9015 2.1613 3.2645 0.92684 1.5445 1.8771 3.2863 3.1004 3.7626 0.053229-0.29425 0.07684-0.69159 0.07684-1.2046 0-0.33665-0.010167-0.62349-0.032197-0.86406 0.34532 0.16342 0.62885 0.3175 0.8244 0.45833 0.60656 0.43683 1.6024 1.6361 2.6335 2.8949 0.97488 1.1902 2.0135 2.7067 2.9636 2.8163-0.033013-0.36618-0.12331-0.85272-0.27432-1.4799-0.098695-0.4099-0.19314-0.75451-0.28506-1.0393 0.39138 0.17925 0.73088 0.34028 0.99854 0.47694 0.71156 0.36332 1.8603 1.0369 3.1364 1.7858 2.3081 1.3546 5.041 2.9677 6.3191 3.783-0.030195-0.19318-0.30641-0.52897-0.78994-1.0779l-1.1684-1.3264 1.6901 0.5178c7.4734 2.2897 15.631 3.293 23.757 3.293 6.7766 0 14.84-1.5217 22.225-3.94l1.2608-0.41286-0.67466 1.1423c-0.25543 0.43249-0.45301 0.76517-0.43565 1.1499 0.87486-0.38516 2.3276-1.4525 3.7195-2.4444 1.3507-0.96255 2.6456-1.8776 3.366-2.196l1.0881-0.48099-0.41781 1.1139c-0.15333 0.40878-0.278 0.72436-0.12537 1.0512 0.85509-0.46334 2.2265-1.7498 3.5003-2.914 1.0865-0.99311 2.1032-1.9156 2.704-2.2898 0.27712-0.17265 0.69797-0.37334 1.2055-0.59223-0.2365 0.29744-0.33525 0.66347-0.45656 1.14-0.11472 0.4506-0.19992 0.80479-0.15336 1.1586 0.59924-0.60239 1.439-1.8146 2.2107-2.8816 0.71829-0.99324 1.3752-1.8914 1.7409-2.2339 0.13101-0.1227 0.33561-0.278 0.59199-0.45677 0.050728 0.18446 0.12657 0.40045 0.21843 0.6474 0.23522 0.63239 0.41725 1.0425 0.70391 1.0904 0.13215-0.098686 0.25076-0.27452 0.37135-0.49265 0.92676-1.6763 1.5748-5.6577 1.6972-7.2967 2.2982-2.6482 4.3564-5.5048 6.1401-8.5368z" stroke="#979797"/>
                    </g>
                    <g transform="translate(46.895 81)" stroke="#979797">
                        <mask id="m" fill="white">
                            <use xlink:href="#p"/>
                        </mask>
                        <path d="m8.9269 0.50098c-2.5112 0.0091011-4.6971 0.074502-6.1325 0.79282-0.51484 0.25764-0.9251 0.60346-1.1973 1.0797-0.26222 0.45889-0.39524 1.0325-0.39524 1.7434 0 1.8778 1.4099 4.0111 3.1745 5.7699 2.0417 2.0349 4.6068 3.6132 6.2415 3.6132s4.1998-1.5783 6.2415-3.6132c1.7646-1.7587 3.1745-3.8921 3.1745-5.7699 0-0.71088-0.13302-1.2845-0.39524-1.7434-0.27217-0.47628-0.68242-0.82211-1.1973-1.0797-1.4354-0.71832-3.6213-0.78372-6.1343-0.79282l-3.3801 3.281e-6z"/>
                        <g fill="#000" mask="url(#m)">
                            <g transform="translate(0 4.8013)">
                                <ellipse transform="translate(4.6293 5.2546) scale(-1 1) rotate(31) translate(-4.6293 -5.2546)" cx="4.6293" cy="5.2546" rx="2.1293" ry="3.7546" fill="D4C3C3"/>
                                <ellipse id="Oval" transform="translate(16.191 5.3691) rotate(31) translate(-16.191 -5.3691)" cx="16.191" cy="5.3691" rx="2.1293" ry="3.7546"/>
                            </g>
                        </g>
                    </g>
                    <g transform="translate(68.42 26)">
                        <path id="Oval" d="m18.051 0.5c-2.821 0-7.9801 3.4125-11.975 8.0959-3.1371 3.6778-5.5765 8.1782-5.5765 12.567 0 2.5898 1.3401 4.6301 2.6016 6.5941 0.59659 0.92883 1.1813 1.8409 1.7495 3.0357 1.2635 2.6578 2.3948 5.0651 3.9276 6.6404 1.09 1.1202 2.3892 1.8012 4.112 1.8012 1.7284 0 3.012-0.44764 4.1049-1.3204 1.3406-1.0707 2.3989-2.7506 3.6364-4.955 0.22413-0.39922 0.46593-0.81783 0.71752-1.2534 1.7185-2.9749 3.9319-6.7579 3.9319-10.543 0-5.4656-0.73278-11.119-2.2123-15.17-0.63855-1.7482-1.4126-3.1938-2.3369-4.1744-0.78213-0.8298-1.6706-1.3191-2.6809-1.3191z" fill="#fff" stroke="#979797"/>
                        <g transform="translate(8.0567 25.714)" fill-rule="evenodd">
                            <mask id="j" fill="white">
                                <use xlink:href="#k"/>
                            </mask>
                            <use id="Oval" fill="#C4A087" xlink:href="#k"/>
                            <ellipse cx="4.4312" cy="6.3265" rx="4.4312" ry="4.6939" fill="#564338" mask="url(#j)"/>
                            <ellipse cx="4.4312" cy="6.1224" rx="2.8199" ry="2.8571" fill="#000" mask="url(#j)"/>
                        </g>
                        <path d="m8.0567 17.959c6.093 0.68271 10.182 2.2203 12.268 4.6128 1.5453 1.7725 0.21611 0.78139-5.0172-1.7602-1.2204-0.59272-3.6375-1.5436-7.2511-2.8526z" fill="#756C6C"/>
                        <path transform="translate(15.725 11.863) rotate(8) translate(-15.725 -11.863)" d="m10.609 12.294c-2.0248 0.68298 11.815-0.021847 10.321-0.75452-1.859-0.91163-8.0407-0.014651-10.321 0.75452z" fill="#756C6C"/>
                    </g>
                    <g transform="translate(33.605 46) scale(-1 1) translate(-13 -20)">
                        <path id="q" d="m18.051 0.5c-2.821 0-7.9801 3.4125-11.975 8.0959-3.1371 3.6778-5.5765 8.1782-5.5765 12.567 0 2.5898 1.3401 4.6301 2.6016 6.5941 0.59659 0.92883 1.1813 1.8409 1.7495 3.0357 1.2635 2.6578 2.3948 5.0651 3.9276 6.6404 1.09 1.1202 2.3892 1.8012 4.112 1.8012 1.7284 0 3.012-0.44764 4.1049-1.3204 1.3406-1.0707 2.3989-2.7506 3.6364-4.955 0.22413-0.39922 0.46593-0.81783 0.71752-1.2534 1.7185-2.9749 3.9319-6.7579 3.9319-10.543 0-5.4656-0.73278-11.119-2.2123-15.17-0.63855-1.7482-1.4126-3.1938-2.3369-4.1744-0.78213-0.8298-1.6706-1.3191-2.6809-1.3191z" fill="#fff" stroke="#979797"/>
                        <g transform="translate(8.0567 25.714)" fill-rule="evenodd">
                            <mask id="i" fill="white">
                                <use xlink:href="#l"/>
                            </mask>
                            <use fill="#C4A087" xlink:href="#l"/>
                            <ellipse cx="4.4312" cy="6.3265" rx="4.4312" ry="4.6939" fill="#564338" mask="url(#i)"/>
                            <ellipse cx="4.4312" cy="6.1224" rx="2.8199" ry="2.8571" fill="#000" mask="url(#i)"/>
                        </g>
                        <path d="m8.0567 17.959c6.093 0.68271 10.182 2.2203 12.268 4.6128 1.5453 1.7725 0.21611 0.78139-5.0172-1.7602-1.2204-0.59272-3.6375-1.5436-7.2511-2.8526z" fill="#756C6C"/>
                        <path transform="translate(15.725 11.863) rotate(8) translate(-15.725 -11.863)" d="m10.609 12.294c-2.0248 0.68298 11.815-0.021847 10.321-0.75452-1.859-0.91163-8.0407-0.014651-10.321 0.75452z" fill="#756C6C"/>
                    </g>
                    <line x1="69.412" x2="67.429" y1="61" y2="81" stroke="#979797"/>
                    <line x1="44.622" x2="47.597" y1="60" y2="79" stroke="#979797"/>
                    <path d="m57.017 48.047c5.1423 0 8.6792 1.4012 9.3167 0.73607 0.67669-0.706-1.9131-2.7832-9.3167-2.7832-7.5741 0-10.11 2.1111-9.2648 2.8319 0.75948 0.64759 4.2481-0.78481 9.2648-0.78481z" fill="#756C6C"/>
                    <path d="m58.851 32.823c0.7805 0 13.536 0.52883 13.536-0.11457 0-0.40659-9.9402-1.6607-14.402-2.5477-3.0992-0.6161-5.9714 0.65481-9.1522 1.8317-2.1917 0.81095-5.509 1.4931-5.1792 1.8236 0.73864 0.7401 10.319-0.99301 15.198-0.99301z" fill="#756C6C" fill-opacity=".8"/>
                    <path d="m100.15 25c-0.007654 0-38.384-6-24.889-6s24.896 6 24.889 6z" fill="#8D7970"/>
                    <g transform="translate(48.588 95)" fill="#fff" stroke="#979797">
                        <polyline points="8.3696 -1.4375e-15 8.3696 11.363 0 14.748"/>
                        <line x1="8.3696" x2="18.609" y1="11.363" y2="14.748"/>
                    </g>
                    <path transform="translate(27.765 20) scale(-1 1) translate(-27.765 -20)" d="m41.647 23c-0.0076535 0-38.384-6-24.889-6s24.896 6 24.889 6z" fill="#8D7970"/>
                    <path d="m92.892 72.802c8.5999 0 18.167-7.333 18.167-7.7778 0-0.44479-9.5667 5.3069-18.167 5.3069-8.5999 0-14.556 2.0261-14.556 2.4709s5.9563 0 14.556 0z" fill="#8D7970"/>
                    <path transform="translate(24.294 71) scale(-1) translate(-24.294 -71)" d="m21.668 74c7.7698 0 18.987-4.934 18.987-5.584 0-0.64996-9.6961 4.3751-18.227 2.8839-8.5305-1.4912-14.496-4.3751-14.496-2.8839s5.9656 5.584 13.735 5.584z" fill="#756C6C"/>
                </g>
            </g>
        </g>
    </g>
</svg>
