<svg version="1.1" viewBox="0 0 126 95" xmlns="http://www.w3.org/2000/svg" xmlns:xlink="http://www.w3.org/1999/xlink">
    <title>Group</title>
    <defs>
        <radialGradient id="b" cx="24.011%" cy="63.162%" r="95.807%" gradientTransform="translate(.24011 .63162) scale(1 .81125) rotate(-17.667) translate(-.24011 -.63162)">
            <stop stop-color="#979191" offset="0"/>
            <stop stop-color="#fff" offset="1"/>
        </radialGradient>
        <radialGradient id="d" cy="0%" r="99.575%" gradientTransform="translate(.5) scale(.83767 1) rotate(90) translate(-.5)">
            <stop stop-color="#A8A8A8" offset="0"/>
            <stop stop-color="#646464" offset="1"/>
        </radialGradient>
        <path id="c" d="m53.671 89.004c17.286 0 41.617 3.8842 50.791-7.6742 5.7133-7.1984 0-27.396 0-36.828 0-24.578-23.667-44.502-51.718-44.502-28.051 0-49.864 19.924-49.864 44.502 0 10.109-6.4811 29.356 0 36.828 9.2764 10.695 34.277 7.6742 50.791 7.6742z"/>
    </defs>
    <g fill="none" fill-rule="evenodd">
        <g transform="translate(-3 -19)">
            <g transform="translate(3 19)">
                <path id="Oval" d="m63.764 5.3548c-13.896 0-26.478 4.931-35.585 12.91-9.0815 7.9571-14.706 18.948-14.706 31.092 0 3.1792-0.63404 7.2565-1.3108 11.59-1.4513 9.2921-3.1992 19.852 1.1885 24.911 7.5996 8.7614 25.885 8.1314 41.191 7.6866 3.2449-0.094297 6.3609-0.18477 9.2225-0.18477 3.3818 0 7.0329 0.14824 10.787 0.30084 15.243 0.61954 32.305 1.4207 39.612-7.7859 3.9131-4.9302 2.2969-16.063 1.0058-25.479-0.58076-4.2354-1.1142-8.1417-1.1142-11.039 0-12.144-5.6243-23.135-14.706-31.092-9.107-7.9794-21.689-12.91-35.585-12.91z" fill="#D8D8D8" stroke="#979797"/>
                <path id="Oval" transform="translate(108.89 19.386) rotate(-14) translate(-108.89 -19.386)" d="m115.75 3.5279c-3.9031 0.13142-9.2847 2.34-13.436 5.5776-3.5262 2.7498-6.2002 6.2538-6.1951 9.9098 0.0056362 4.0271 1.454 7.677 3.7974 10.32 2.323 2.6199 5.5275 4.2494 9.0685 4.2544 1.0579 0.0014719 1.827 0.50757 2.539 1.0039 0.503 0.35061 0.9711 0.7294 1.6609-0.014581-0.08455-0.7938-0.11372-1.7027 0.29605-2.2263 0.19284-0.24641 0.4684-0.43372 0.8718-0.5097 0.28629-0.05392 0.65049-0.049556 1.1123 0.048953 0.87237 0.18607 1.623 0.51743 2.2171 0.78204 0.25039 0.11152 0.46185 0.21695 0.77085 0.18617 0.010357-0.43179-0.13684-1.2295-0.16863-3.1049 0.19765-0.19212 0.50799-0.45475 0.85782-0.74986 0.78415-0.66149 1.9862-1.5053 1.9856-1.9619-4.05e-4 -0.28971-0.73071-0.50817-1.2209-0.79045-0.61518-0.35423-1.2563-0.72496-1.9649-2.3724 0.56895-1.4827 1.9938-2.2218 3.4614-2.8895-0.24208-0.10846-0.54942-0.22646-0.8759-0.35308-0.75324-0.29213-1.597-0.62677-2.0865-0.96796-0.26648-0.18573-0.49431-0.35335-0.451-1.3908 0.52611-0.76005 1.414-1.5244 2.2155-2.2061 0.46188-0.39283 1.119-0.76799 1.0266-1.3103-0.51154 0.05516-1.1851 0.22557-1.8657 0.39208-0.93026 0.22758-1.8724 0.45091-2.5009 0.45495-0.34649 0.0022285-0.64412-0.0043156-1.22-0.91998-0.003581-2.5606 2.0224-3.9066 3.3963-4.7676 0.26394-0.16539 0.56372-0.27619 0.51558-0.57039-0.39883-0.16741-1.0089 0.0056224-1.679 0.14381-1.2605 0.25993-2.6984 0.50437-3.8337-0.18503-0.46282-0.28102-0.73641-0.60638-0.8834-0.94569-0.17088-0.39445-0.1771-0.82055-0.048682-1.2631 0.27711-0.95509 1.2599-2.0102 2.0764-2.8546 0.21951-0.22701 0.53591-0.43636 0.56159-0.71927z" fill="url(#b)" stroke="#979797"/>
                <path transform="translate(17.184 19.282) scale(-1 1) rotate(-14) translate(-17.184 -19.282)" d="m24.04 3.4231c-3.9031 0.13142-9.2847 2.34-13.436 5.5776-3.5262 2.7498-6.2002 6.2538-6.1951 9.9098 0.0056362 4.0271 1.454 7.677 3.7974 10.32 2.323 2.6199 5.5275 4.2494 9.0685 4.2544 1.0579 0.0014719 1.827 0.50757 2.539 1.0039 0.503 0.35061 0.9711 0.7294 1.6609-0.014581-0.08455-0.7938-0.11372-1.7027 0.29605-2.2263 0.19284-0.24641 0.4684-0.43372 0.8718-0.5097 0.28629-0.05392 0.65049-0.049556 1.1123 0.048953 0.87237 0.18607 1.623 0.51743 2.2171 0.78204 0.25039 0.11152 0.46185 0.21695 0.77085 0.18617 0.010357-0.43179-0.13684-1.2295-0.16863-3.1049 0.19765-0.19212 0.50799-0.45475 0.85783-0.74986 0.78415-0.66149 1.9862-1.5053 1.9856-1.9619-4.052e-4 -0.28971-0.73071-0.50817-1.2209-0.79045-0.61517-0.35423-1.2563-0.72496-1.9649-2.3724 0.56895-1.4827 1.9938-2.2218 3.4614-2.8895-0.24208-0.10846-0.54942-0.22646-0.8759-0.35308-0.75324-0.29213-1.597-0.62677-2.0865-0.96796-0.26648-0.18573-0.49431-0.35335-0.451-1.3908 0.52611-0.76005 1.414-1.5244 2.2155-2.2061 0.46188-0.39283 1.119-0.76799 1.0266-1.3103-0.51154 0.05516-1.1851 0.22557-1.8657 0.39208-0.93026 0.22758-1.8724 0.45091-2.5009 0.45495-0.34649 0.0022284-0.64412-0.0043156-1.22-0.91998-0.0035813-2.5606 2.0224-3.9066 3.3963-4.7676 0.26394-0.16539 0.56372-0.27619 0.51558-0.57039-0.39883-0.16741-1.0089 0.0056224-1.679 0.14381-1.2605 0.25993-2.6984 0.50437-3.8337-0.18503-0.46282-0.28102-0.73641-0.60638-0.8834-0.94569-0.17088-0.39445-0.1771-0.82055-0.048683-1.2631 0.27711-0.95509 1.2599-2.0102 2.0764-2.8546 0.21951-0.22701 0.53591-0.43636 0.56159-0.71927z" fill="url(#b)" stroke="#979797"/>
                <g id="Oval" transform="translate(10.093 4.8548)">
                    <mask id="a" fill="white">
                        <use xlink:href="#c"/>
                    </mask>
                    <use fill="url(#d)" xlink:href="#c"/>
                    <path d="m53.269 45.164c-2.9154 0-5.1399 1.4271-7.0894 3.8544-2.6301 3.2748-4.7609 8.3357-7.2929 14.321-0.42448 1.0035-0.85991 2.0328-1.3104 3.0841-0.89451 2.0876-2.766 4.1504-4.7031 6.2668-2.7477 3.0021-5.676 6.1168-5.676 9.6789 0 9.5407 3.3333 18.244 7.9794 24.836 5.321 7.5506 12.369 12.369 18.092 12.369 5.7591 0 13.063-4.8745 18.584-12.506 4.7571-6.5753 8.1951-15.224 8.1951-24.7 0-5.6867-2.9395-7.8526-6.1893-10.297-1.9947-1.5007-4.1087-3.0993-5.8262-5.559-1.9725-2.8248-3.6817-6.2789-5.3203-9.5949-1.7573-3.5562-3.4292-6.953-5.2766-9.2004-1.27-1.545-2.6142-2.5539-4.1666-2.5539z" fill="#D8D8D8" mask="url(#a)" stroke="#979797"/>
                    <path d="m53.269 45.164c-2.9154 0-5.1399 1.4271-7.0894 3.8544-2.6301 3.2748-4.7609 8.3357-7.2929 14.321-0.42448 1.0035-0.85991 2.0328-1.3104 3.0841-0.89451 2.0876-2.766 4.1504-4.7031 6.2668-2.7477 3.0021-5.676 6.1168-5.676 9.6789 0 9.5407 3.3333 18.244 7.9794 24.836 5.321 7.5506 12.369 12.369 18.092 12.369 5.7591 0 13.063-4.8745 18.584-12.506 4.7571-6.5753 8.1951-15.224 8.1951-24.7 0-5.6867-2.9395-7.8526-6.1893-10.297-1.9947-1.5007-4.1087-3.0993-5.8262-5.559-1.9725-2.8248-3.6817-6.2789-5.3203-9.5949-1.7573-3.5562-3.4292-6.953-5.2766-9.2004-1.27-1.545-2.6142-2.5539-4.1666-2.5539z" fill="#fff" mask="url(#a)" stroke="#979797"/>
                    <path d="m53.269 45.164c-2.9154 0-5.1399 1.4271-7.0894 3.8544-2.6301 3.2748-4.7609 8.3357-7.2929 14.321-0.42448 1.0035-0.85991 2.0328-1.3104 3.0841-0.39235 0.91567-0.45719 1.6591-0.15905 2.2558 0.32611 0.65267 1.0502 1.1033 2.0516 1.4529 2.7497 0.96001 7.5354 1.0766 13.365 1.0816l1.4435-5.06e-5c5.5962-0.0032168 10.023-0.038821 12.443-0.97634 0.84168-0.32605 1.4316-0.75532 1.6516-1.3945 0.21561-0.62626 0.075224-1.4151-0.38345-2.4063-0.42592-0.92046-0.8631-1.8847-1.3114-2.8735-2.2298-4.9183-4.7331-10.451-7.5044-14.188-1.8454-2.4882-3.7955-4.2112-5.9039-4.2112z" fill="#2B2B2B" mask="url(#a)" stroke="#979797"/>
                </g>
                <line x1="62.944" x2="62.944" y1="76.569" y2="87.224" stroke="#979797"/>
                <path id="e" transform="translate(85.366 46.605) rotate(-22) translate(-85.366 -46.605)" d="m85.834 36.416c-1.1665-0.0023997-2.0222 0.47841-2.7247 1.2719-1.0214 1.1536-1.7352 2.9231-2.5458 4.8946-0.55831 1.358-1.1565 2.8113-1.9087 4.2401-0.66705 1.2671-0.99319 2.5549-0.97655 3.7687 0.016351 1.1928 0.36522 2.312 1.0442 3.26 1.2755 1.781 3.6929 2.9365 7.1579 2.9436 3.0173 0.006201 4.7929-0.83409 5.8032-2.2386 1.4242-1.9799 1.3761-4.9643 1.3699-7.934-0.0054349-2.6274-0.88276-5.2575-2.2836-7.2005-1.2863-1.784-3.0193-3.0019-4.9357-3.0059z" fill="#fff" stroke="#979797"/>
                <path transform="translate(40.427 46.605) scale(-1 1) rotate(-22) translate(-40.427 -46.605)" d="m40.895 36.416c-1.1665-0.0023997-2.0222 0.47841-2.7247 1.2719-1.0214 1.1536-1.7352 2.9231-2.5458 4.8946-0.55831 1.358-1.1565 2.8113-1.9087 4.2401-0.66705 1.2671-0.99319 2.5549-0.97655 3.7687 0.016351 1.1928 0.36522 2.312 1.0442 3.26 1.2755 1.781 3.6929 2.9365 7.1579 2.9436 3.0173 0.006201 4.7929-0.83409 5.8032-2.2386 1.4242-1.9799 1.3761-4.9643 1.3699-7.934-0.0054349-2.6274-0.88276-5.2575-2.2836-7.2005-1.2863-1.784-3.0193-3.0019-4.9357-3.0059z" fill="#fff" stroke="#979797"/>
                <ellipse cx="84.163" cy="51.137" rx="1" ry="1.7656" fill="#626262" stroke="#000"/>
                <ellipse cx="41.512" cy="51.137" rx="1" ry="1.7656" fill="#626262" stroke="#000"/>
                <path d="m63 87c-5.7829 2.6667-9.4496 4-11 4" stroke="#979797"/>
                <path transform="translate(68.5 89) scale(-1 1) translate(-68.5 -89)" d="m74 87c-5.7829 2.6667-9.4496 4-11 4" stroke="#979797"/>
            </g>
        </g>
    </g>
</svg>
