<svg version="1.1" viewBox="0 0 119 125" xmlns="http://www.w3.org/2000/svg">
    <title>mrlion</title>
    <g fill="none" fill-rule="evenodd">
        <path d="m100.97 21.5h-83.376l12.715 77.024c10.551 6.0549 18.462 9.7318 23.737 11.016 5.262 1.2811 12.439 1.2789 21.53 0.012255 11.313-10.098 18.705-21.147 22.164-33.153 3.4612-12.015 4.532-30.316 3.2308-54.898z" fill="#CDB279" stroke="#979797"/>
        <path d="m54.534 6.378c0.48426-0.010709 15.362-8.6916 30.624-4.9396 7.6375 1.8776 15.359 6.8864 21.36 17.65-0.23652 0.45776-0.75434 0.62244-1.3511 0.77312l-0.33213 0.082484c-1.1179 0.27971-2.4008 0.60648-3.3764 1.1222-0.23085 0.12203-0.46264 0.26424-0.69341 0.42099 0.21728 0.14251 0.43172 0.28673 0.64314 0.4326 4.8996 3.3804 9.5459 8.5885 12.491 13.823 2.531 4.4989 3.8347 9.0268 2.8351 12.385-1.4446-0.43398-4.5297-0.66002-5.5147-0.66002-0.23881 0-0.60107 0.013287-1.0333 0.039945 0.216 0.25295 0.43099 0.51125 0.64492 0.77502 9.603 11.84 7.9887 23.489 6.6657 33.226-0.086557 0.63705-0.17202 1.2661-0.25328 1.8866-0.88245-0.73158-1.5298-1.842-2.1069-2.8042-0.48798-0.81373-0.92693-1.5369-1.2119-1.8672-0.17708-0.20519-0.49554-0.49137-0.88724-0.82236 0.020993 0.38227 0.024477 0.75868 0.009132 1.1283-0.32906 7.9263-9.5466 18.25-13.905 22.863-0.65846 0.69685-1.1154 1.2038-1.4278 1.4946 0.016359-0.34914 0.095872-0.66615 0.18135-1.0258 0.30543-1.2851 0.71959-3.0442 0.71959-4.8026 0-0.41063-0.022585-0.8213-0.061152-1.2259-0.26185 0.29305-0.53016 0.58819-0.80593 0.88639-4.0414 4.37-7.5541 7.0909-13.282 11.532-4.5737 3.5464-10.553 8.1828-19.322 15.603-8.4764-6.5656-16.047-10.182-22.191-13.116-6.2575-2.9877-11.029-5.2297-13.688-9.2771-0.16344-0.24876-0.31746-0.50215-0.46239-0.75933-0.15258 0.24197-0.29427 0.52263-0.42202 0.85403-0.53644 1.3915-0.29027 2.2847-0.027383 3.1903 0.16507 0.56858 0.33926 1.1432 0.20431 1.9215-1.1392-0.83092-2.3258-1.5599-3.5287-2.2983-4.9433-3.0338-10.165-6.239-13.355-17.836-0.11701-0.42539-0.2259-0.84247-0.32698-1.2509-0.34111 0.67368-0.59532 1.1464-0.59532 1.1464s-1.6131 2.9997-2.6899 4.3728c-1.5413-0.5647-2.315-2.4251-2.8852-4.9253-0.72021-3.1582-1.0782-7.3389-1.0782-11.597 0-7.925 1.1784-16.201 3.7252-18.394 0.32146-0.2768 0.73552-0.51765 1.2285-0.72466-0.51843-0.09675-1.0409-0.15423-1.5548-0.15423-2.1425 0-4.4329 0.99904-5.9645 1.6775-0.35143 0.15567-0.6543 0.30291-0.89299 0.40344 1.5681-16.154 8.4403-23.878 13.25-29.172 0.24996-0.2751 0.50591-0.55637 0.76763-0.84213-0.35904 0.0058816-0.7327 0.0058913-1.1377 0.0058913l-0.2745-7.27e-5c-2.0696-0.0016609-3.3707-0.041252-6.3747-0.98495 6.0252-10.166 13.72-17.687 22.203-21.34 8.0417-3.4628 16.787-3.4324 25.46 1.122zm-31.4 20.405c-1.0346 0.099608-1.8973 0.47544-2.5265 1.1278-0.62901 0.65218-0.97399 1.5283-1.0373 2.5668-0.061032 1.0014 0.14256 2.1597 0.59577 3.3975 0.85779 2.3427 2.6139 4.9855 5.0761 7.3662 0.084512 0.081715 0.1693 0.16259 0.25422 0.24251-3.2026 5.8915-3.757 13.131-1.8146 20.962 2.6609 10.728 8.3541 23.308 15.555 32.478 6.005 7.6464 13.061 12.894 20.263 12.894 7.2317 0 14.307-5.2892 20.288-12.985 7.1223-9.1638 12.695-21.699 15.167-32.394 1.8477-7.9932 1.2026-15.369-2.1647-21.323 2.3941-2.3476 4.1036-4.9384 4.9462-7.2397 0.45321-1.2378 0.6568-2.3961 0.59577-3.3975-0.063295-1.0385-0.40828-1.9146-1.0373-2.5668-0.62355-0.64652-1.4762-1.0216-2.5026-1.1213-0.98272-0.095509-2.1312 0.064033-3.3758 0.47214-2.2591 0.7408-4.8522 2.3041-7.6246 4.8705-0.55317-0.32753-1.126-0.64216-1.7186-0.9434-0.2032-0.10329-0.40629-0.20378-0.60927-0.30147-0.035643 0.21814-0.072376 0.43943-0.11031 0.66386-0.48975 2.8976-0.99694 5.2367-1.523 7.0183-0.80552 2.7279-2.1242 5.7334-3.953 9.0178-0.22437-3.2901-0.52564-5.8185-0.90171-7.5845-0.43768-2.0553-1.3668-4.9116-2.7913-8.5677-0.25996-0.66722-0.51404-1.3037-0.76223-1.9093-0.056306 0.66893-0.12311 1.3474-0.20052 2.0349-0.5116 4.5436-1.3878 8.6022-2.6308 12.175-1.1078 3.184-3.049 7.5457-5.8218 13.086 0.31948-5.6161 0.2644-9.9462-0.16091-12.991-0.49107-3.5152-1.6815-6.833-3.5725-9.9529-0.13169-0.21728-0.2658-0.43199-0.40234-0.64414-0.14383 0.20217-0.28867 0.40779-0.43482 0.61649-2.9598 4.2267-4.912 7.5153-5.8644 9.8617-0.83807 2.0648-1.514 4.9032-2.0214 8.5173-1.8788-3.6064-3.0798-6.4233-3.5962-8.4526-0.58194-2.2869-1.0143-5.5118-1.3015-9.6741-0.034361-0.49792-0.064822-0.98285-0.091376-1.4548-0.26622 0.38813-0.54035 0.79171-0.82207 1.2098-2.2138 3.2851-3.7761 5.7996-4.6887 7.5427-0.87728 1.6757-1.5199 4.8389-1.897 9.5018-1.6012-1.0729-2.6112-3.4729-3.1419-7.0749-0.41756-2.834-0.55773-6.6578-0.42446-11.471l-0.26951-0.26803c-2.4673-2.3857-5.1665-4.0508-7.5349-4.8274-1.2515-0.4104-2.4151-0.5737-3.4127-0.47767z" fill="#73573F" stroke="#979797"/>
        <circle id="a" cx="72" cy="62" r="2.5" fill="#000" stroke="#979797"/>
        <circle cx="43" cy="62" r="2.5" fill="#000" stroke="#979797"/>
        <g transform="translate(49 84)" stroke="#979797">
            <polyline points="9.1538 -1.3323e-15 9.0297 14.096 -8.5265e-14 17.372"/>
            <line x1="8.7005" x2="17.342" y1="14.288" y2="17.372"/>
        </g>
        <path d="m66.279 79.569c-1.5911-3.7917-2.4452-6.7198-2.5623-8.7844-0.11714-2.0646-0.11714-4.9927 0-8.7844-1.9045 0.82037-3.3373 1.2305-4.2985 1.2305s-2.3821-0.41018-4.2627-1.2305c0.43186 3.8826 0.43186 6.8107 0 8.7844-0.43186 1.9737-1.7133 4.9018-3.8442 8.7844-3.2428 5.9083 20.018 5.9083 14.968 0z" fill="#D2B881"/>
        <path d="m57.198 79.5c-1.9231 0-3.6652 0.26673-4.9258 0.70456-0.59505 0.20667-1.0783 0.44782-1.406 0.72253-0.21049 0.17649-0.36636 0.36001-0.36636 0.57291s0.15587 0.39642 0.36636 0.57291c0.32764 0.27472 0.81093 0.51587 1.406 0.72253 1.2606 0.43783 3.0027 0.70456 4.9258 0.70456 2.0401 0 4.3096-0.30029 6.0055-0.78199 0.76095-0.21614 1.4032-0.46576 1.8422-0.7462 0.22937-0.14652 0.4541-0.28244 0.4541-0.47181s-0.22473-0.32529-0.4541-0.47181c-0.43902-0.28044-1.0813-0.53007-1.8422-0.7462-1.696-0.4817-3.9655-0.78199-6.0055-0.78199z" fill="#73573F" stroke="#979797"/>
    </g>
</svg>
