<svg version="1.1" viewBox="0 0 121 88" xmlns="http://www.w3.org/2000/svg">
    <title>Group 2</title>
    <defs>
        <radialGradient id="f" cy="69.97%" r="77.609%" gradientTransform="translate(.5 .6997) scale(.97256 1) rotate(22.764) translate(-.5 -.6997)">
            <stop stop-color="#F7EFCF" offset="0"/>
            <stop stop-color="#E2D7AB" offset="1"/>
            <stop stop-color="#C2BA99" offset="1"/>
        </radialGradient>
        <radialGradient id="e" cx="3.2974%" cy="14.39%" r="113.5%" gradientTransform="translate(.032974 .1439) scale(.818 1) rotate(20.286) translate(-.032974 -.1439)">
            <stop stop-color="#EDE3BE" offset="0"/>
            <stop stop-color="#C7C08F" offset="1"/>
        </radialGradient>
        <radialGradient id="d" cx="5.758%" cy="16.511%" r="109.02%" gradientTransform="translate(.05758 .1651) scale(.818 1) rotate(31.165) translate(-.05758 -.1651)">
            <stop stop-color="#EDE4BF" offset="0"/>
            <stop stop-color="#C8C08F" offset="1"/>
        </radialGradient>
        <radialGradient id="c" cx="14.167%" cy="11.107%" r="115.49%" gradientTransform="translate(.14167 .11107) scale(.77872 1) rotate(39.745) translate(-.14167 -.11107)">
            <stop stop-color="#FFDFDF" offset="0"/>
            <stop stop-color="#C5A1A1" offset="1"/>
        </radialGradient>
        <radialGradient id="b" cx="7.2023%" cy="5.0115%" r="115.82%" gradientTransform="translate(.072023 .050115) scale(.77872 1) rotate(36.778) translate(-.072023 -.050115)">
            <stop stop-color="#FADADA" offset="0"/>
            <stop stop-color="#C6A2A2" offset="1"/>
        </radialGradient>
        <radialGradient id="a" cy="0%" r="100%" gradientTransform="translate(.5) scale(.94208 1) rotate(90) translate(-.5)">
            <stop stop-color="#7C4040" offset="0"/>
            <stop stop-color="#B38484" offset="1"/>
        </radialGradient>
    </defs>
    <g fill="none" fill-rule="evenodd">
        <g transform="translate(-6 -23)">
            <g transform="translate(6 23)">
                <path id="Oval" d="m60.5 6.555c-7.9378 0-17.003 4.7874-24.665 12.43-7.3209 7.3026-13.363 17.225-15.924 28.157-2.7369 11.685-0.78107 22.225 6.6063 29.594 6.7187 6.7019 17.892 10.765 33.982 10.765 15.956 0 26.882-3.9956 33.502-10.599 7.3996-7.381 9.3791-17.998 7.0821-29.777-2.1034-10.786-8.0079-20.588-15.296-27.859-7.826-7.8064-17.253-12.71-25.288-12.71z" fill="url(#f)" stroke="#000"/>
                <path id="Oval" d="m60.798 7.9293c0 0.21945 0.041448 0.39834 0.13868 0.53928 0.10668 0.15463 0.27306 0.25849 0.47689 0.34144 0.71707 0.29182 1.834 0.31522 3.1865 0.36316 1.9473 0.06902 4.3571 0.15901 6.8304 0.93127 4.4263 1.382 9.4437 6.107 13.817 10.255 0.8309 0.78813 1.6386 1.5543 2.4145 2.2703 8.7832 8.1053 12.759 15.409 15.428 20.315 1.86 3.4189 2.9837 5.7313 4.8837 6.0182 1.6753 0.25292 3.8712-1.0717 7.5386-4.1707 3.021-2.5528 4.4799-5.877 4.7438-9.5421 0.30081-4.1772-0.93915-8.7899-3.1837-13.23-4.8509-9.5968-14.405-18.416-23.553-20.304-8.0378-1.6588-15.744-1.486-21.688-0.29041-3.3873 0.68138-6.198 1.6927-8.1568 2.8907-1.7771 1.0869-2.877 2.3144-2.877 3.6132z" fill="url(#e)" stroke="#000"/>
                <path transform="translate(30.251 24.746) scale(-1 1) translate(-30.251 -24.746)" d="m0.5 7.9293c0 0.21945 0.041449 0.39834 0.13868 0.53928 0.10668 0.15463 0.27306 0.25849 0.47689 0.34144 0.71707 0.29182 1.834 0.31522 3.1865 0.36316 1.9473 0.06902 4.3571 0.15901 6.8304 0.93127 4.4263 1.382 9.4437 6.107 13.817 10.255 0.8309 0.78813 1.6386 1.5543 2.4145 2.2703 8.7832 8.1053 12.759 15.409 15.428 20.315 1.86 3.4189 2.9837 5.7313 4.8837 6.0182 1.6753 0.25292 3.8712-1.0717 7.5386-4.1707 3.021-2.5528 4.4799-5.877 4.7438-9.5421 0.30081-4.1772-0.93915-8.7899-3.1837-13.23-4.8509-9.5968-14.405-18.416-23.553-20.304-8.0378-1.6588-15.744-1.486-21.688-0.29041-3.3873 0.68138-6.198 1.6927-8.1568 2.8907-1.7771 1.0869-2.877 2.3144-2.877 3.6132z" fill="url(#d)" stroke="#000"/>
                <path transform="translate(28.398 24.988) scale(-1 1) translate(-28.398 -24.988)" d="m8.5024 10.645c3.5286 1.5038 7.2708 4.9454 10.851 8.2625 1.4648 1.3574 2.9032 2.6905 4.2898 3.8497 5.5282 4.6215 9.0635 8.8792 11.763 12.132 2.5081 3.022 4.2474 5.1824 6.268 5.8438 1.6295 0.53336 3.4212 0.01467 5.9393-1.7217 0.77223-0.5325 1.1904-1.2264 1.3379-2.026 0.17942-0.97258-0.024385-2.0861-0.44396-3.2496-1.3926-3.8616-5.1691-8.2359-6.9172-10.269-8.4915-9.8806-11.01-12.272-17.168-13.593-8.629-1.8521-13.901-0.14429-15.919 0.7716z" fill="url(#c)" stroke="#000"/>
                <path d="m72.851 10.578c3.5286 1.5038 7.2708 4.9454 10.851 8.2625 1.4648 1.3574 2.9032 2.6905 4.2898 3.8497 5.5282 4.6215 9.0635 8.8792 11.763 12.132 2.5081 3.022 4.2474 5.1824 6.268 5.8438 1.6295 0.53336 3.4212 0.01467 5.9393-1.7217 0.77223-0.5325 1.1904-1.2264 1.3379-2.026 0.17942-0.97258-0.024385-2.0861-0.44396-3.2496-1.3926-3.8616-5.1691-8.2359-6.9172-10.269-8.4915-9.8806-11.01-12.272-17.168-13.593-8.629-1.8521-13.901-0.14429-15.919 0.7716z" fill="url(#b)" stroke="#000"/>
                <path id="Oval" d="m60.5 50.151c-4.8483 0-8.8985 1.5499-11.974 4.0897-3.3441 2.7619-5.5333 6.6895-6.3526 11.044-0.51321 2.7278-1.0021 5.2884-0.6853 7.503 0.2248 1.5713 0.86836 2.9608 2.2397 4.0933 2.576 2.1275 7.589 3.3525 16.772 3.3525 9.0409 0 14-1.1878 16.582-3.2556 1.3722-1.0988 2.0376-2.4472 2.2963-3.975 0.36508-2.156-0.053641-4.6532-0.55451-7.7304-0.70098-4.3243-2.8721-8.2257-6.2089-10.982-3.1114-2.5696-7.2343-4.1401-12.115-4.1401z" fill="#D8D8D8" stroke="#000"/>
                <path id="Oval" d="m60.702 55.803c-1.3725 0-2.1824 0.20563-2.6315 0.62877-0.57661 0.54322-0.51061 1.3952-0.51061 2.3024 0 0.73526 0.4111 1.3961 0.94989 1.9037 0.65489 0.61696 1.5181 1.0275 2.1922 1.0275 0.67938 0 1.5508-0.41885 2.2054-1.0826 0.5385-0.5461 0.93656-1.271 0.93642-2.1105-0.0034841-0.82111 0.013036-1.5865-0.54904-2.0757-0.45814-0.39869-1.2599-0.59365-2.5927-0.59365z" fill="url(#a)" stroke="#000"/>
                <line x1="60.702" x2="60.702" y1="62.165" y2="74.28" stroke="#B38484" stroke-width="2"/>
                <path d="m60.702 74.28c1.031 2.3257 2.8521 3.4886 5.4632 3.4886 2.6111 0 4.4322-1.1629 5.4632-3.4886" stroke="#B38484" stroke-width="2"/>
                <path transform="translate(55.239 76.024) scale(-1 1) translate(-55.239 -76.024)" d="m49.776 74.28c1.031 2.3257 2.8521 3.4886 5.4632 3.4886 2.6111 0 4.4322-1.1629 5.4632-3.4886" stroke="#B38484" stroke-width="2"/>
                <g transform="translate(67.682 30.873)">
                    <ellipse id="g" cx="2.4281" cy="5.8532" rx="1.9281" ry="5.3532" fill="#fff" stroke="#000"/>
                    <path id="i" d="m2.6472 3.5478c-0.58536 0-1.175 0.14941-1.5753 0.7423-0.36358 0.53845-0.57186 1.3892-0.57186 2.6781 0 1.0599 0.25544 1.9184 0.5963 2.5836 0.23129 0.45134 0.50111 0.81292 0.75413 1.0873 0.27631 0.29962 0.51544 0.5674 0.57767 0.5674 0.062227 0 0.30136-0.26778 0.57767-0.5674 0.25302-0.27437 0.52284-0.63595 0.75413-1.0873 0.34086-0.66517 0.5963-1.5237 0.5963-2.5836 0-1.369-0.14828-2.2487-0.45388-2.791-0.12663-0.22473-0.28013-0.37921-0.46415-0.4754-0.22919-0.11982-0.49684-0.15393-0.791-0.15393z" fill="#5A87DA" stroke="#000"/>
                    <path id="Oval" d="m2.5573 5.344c-0.35383 0-0.76576 0.36186-1.0883 0.82465-0.32707 0.46934-0.56432 1.0869-0.56432 1.7643 0 0.76101 0.26016 1.6 0.61331 2.2565 0.17836 0.33156 0.37983 0.61665 1.2184 0.80912 0.20748-0.20907 0.40814-0.51259 0.58663-0.8632 0.36118-0.7095 0.62851-1.6122 0.62851-2.391 0-0.68879-0.19023-1.2828-0.47451-1.7181-0.25663-0.39293-0.58943-0.68227-0.91973-0.68227z" fill="#000" stroke="#000"/>
                    <ellipse id="Oval" cx="2.4244" cy="8.2752" rx="1" ry="1" fill="#fff" stroke="#fff"/>
                </g>
                <g transform="translate(52.035 36.873) scale(-1 1) translate(-2.5 -6)">
                    <ellipse cx="2.4281" cy="5.8532" rx="1.9281" ry="5.3532" fill="#fff" stroke="#000"/>
                    <path d="m2.6472 3.5478c-0.58536 0-1.175 0.14941-1.5753 0.7423-0.36358 0.53845-0.57186 1.3892-0.57186 2.6781 0 1.0599 0.25544 1.9184 0.5963 2.5836 0.23129 0.45134 0.50111 0.81292 0.75413 1.0873 0.27631 0.29962 0.51544 0.5674 0.57767 0.5674 0.062227 0 0.30136-0.26778 0.57767-0.5674 0.25302-0.27437 0.52284-0.63595 0.75413-1.0873 0.34086-0.66517 0.5963-1.5237 0.5963-2.5836 0-1.369-0.14828-2.2487-0.45388-2.791-0.12663-0.22473-0.28013-0.37921-0.46415-0.4754-0.22919-0.11982-0.49684-0.15393-0.791-0.15393z" fill="#5A87DA" stroke="#000"/>
                    <path id="h" d="m2.5573 5.344c-0.35383 0-0.76576 0.36186-1.0883 0.82465-0.32707 0.46934-0.56432 1.0869-0.56432 1.7643 0 0.76101 0.26016 1.6 0.61331 2.2565 0.17836 0.33156 0.37983 0.61665 1.2184 0.80912 0.20748-0.20907 0.40814-0.51259 0.58663-0.8632 0.36118-0.7095 0.62851-1.6122 0.62851-2.391 0-0.68879-0.19023-1.2828-0.47451-1.7181-0.25663-0.39293-0.58943-0.68227-0.91973-0.68227z" fill="#000" stroke="#000"/>
                    <ellipse cx="2.3145" cy="8.2752" rx="1" ry="1" fill="#fff" stroke="#fff"/>
                </g>
            </g>
        </g>
    </g>
</svg>
