<?xml version="1.0" encoding="UTF-8"?>
<svg width="55px" height="55px" viewBox="0 0 55 55" version="1.1" xmlns="http://www.w3.org/2000/svg" xmlns:xlink="http://www.w3.org/1999/xlink">
    <title>Combined Shape</title>
    <g id="Page-1" stroke="none" stroke-width="1" fill="none" fill-rule="evenodd">
        <g id="Desktop-HD-Copy-3" transform="translate(-1311.000000, -115.000000)" fill="#FFFFFF">
            <path d="M1338.5,115 C1353.68783,115 1366,127.312169 1366,142.5 C1366,157.687831 1353.68783,170 1338.5,170 C1323.31217,170 1311,157.687831 1311,142.5 C1311,127.312169 1323.31217,115 1338.5,115 Z M1337.63281,136.398438 C1334.32812,136.398438 1334.32812,136.398438 1333.25,136.703125 C1332.17188,137.007812 1332.17188,137.007812 1332.17188,138.320312 C1332.17188,139.1875 1332.17188,139.1875 1332.57031,139.84375 C1333.69531,139.84375 1333.69531,139.84375 1334.28125,140.042969 C1334.86719,140.242188 1334.86719,140.242188 1335.14844,141.027344 C1335.42969,141.8125 1335.42969,141.8125 1335.51172,143.511719 C1335.58719,145.075 1335.58719,145.075 1335.59323,149.58415 L1335.59375,150.390625 C1335.59375,153.303571 1335.59375,153.303571 1335.50765,155.923788 L1335.47656,156.789062 L1333.55469,156.789062 C1332.82812,156.789062 1332.82812,156.789062 1332.5,157.105469 C1332.17188,157.421875 1332.17188,157.421875 1332.17188,158.148438 C1332.17188,158.891741 1332.17188,158.891741 1332.4646,159.721142 L1332.57031,160 L1343.82031,160 C1344.80469,160 1344.80469,160 1345.14453,159.671875 C1345.48438,159.34375 1345.48438,159.34375 1345.48438,158.523438 C1345.48438,157.699777 1345.48438,157.699777 1345.19165,157.013871 L1345.08594,156.789062 L1342.32031,156.789062 C1342.21987,154.217634 1342.21987,154.217634 1342.1883,151.353476 L1342.17969,150.390625 L1342.17969,138.859375 C1342.17969,137.875 1342.17969,137.875 1342.05078,137.324219 C1341.92188,136.773438 1341.92188,136.773438 1341.01953,136.585938 C1340.11719,136.398438 1340.11719,136.398438 1337.63281,136.398438 Z M1338.64062,126.71875 C1336.4375,126.71875 1336.4375,126.71875 1335.24219,127.714844 C1334.04688,128.710938 1334.04688,128.710938 1334.04688,130.257812 C1334.04688,131.734375 1334.04688,131.734375 1334.98438,132.542969 C1335.92188,133.351562 1335.92188,133.351562 1338.03125,133.351562 C1340.51562,133.351562 1340.51562,133.351562 1341.64062,132.34375 C1342.76562,131.335938 1342.76562,131.335938 1342.76562,129.8125 C1342.76562,128.429688 1342.76562,128.429688 1341.82812,127.574219 C1340.89062,126.71875 1340.89062,126.71875 1338.64062,126.71875 Z" id="Combined-Shape"></path>
        </g>
    </g>
</svg>